<svg width="500" height="750" xmlns="http://www.w3.org/2000/svg">
    <defs>
        <linearGradient id="horrorGradient" x1="0%" y1="0%" x2="100%" y2="100%">
            <stop offset="0%" style="stop-color:#000000;stop-opacity:1" />
            <stop offset="100%" style="stop-color:#8b0000;stop-opacity:1" />
        </linearGradient>
    </defs>
    <rect width="500" height="750" fill="url(#horrorGradient)"/>
    
    <!-- Skull -->
    <ellipse cx="250" cy="280" rx="60" ry="70" fill="#f8f8f8"/>
    <circle cx="225" cy="260" r="15" fill="#000"/>
    <circle cx="275" cy="260" r="15" fill="#000"/>
    <path d="M240 300 L250 320 L260 300" stroke="#000" stroke-width="4" fill="none"/>
    <path d="M220 330 Q250 350 280 330" stroke="#000" stroke-width="6" fill="none"/>
    
    <!-- Bats -->
    <path d="M100 150 Q90 140 80 150 Q90 160 100 150 Q110 140 120 150 Q110 160 100 150" fill="#000"/>
    <path d="M400 180 Q390 170 380 180 Q390 190 400 180 Q410 170 420 180 Q410 190 400 180" fill="#000"/>
    <path d="M150 500 Q140 490 130 500 Q140 510 150 500 Q160 490 170 500 Q160 510 150 500" fill="#000"/>
    
    <!-- Lightning -->
    <path d="M350 100 L340 150 L355 150 L345 200 L365 160 L350 160 L360 120 Z" fill="#fff" opacity="0.8"/>
    
    <text x="250" y="550" text-anchor="middle" fill="#fff" font-family="Arial, sans-serif" font-size="32" font-weight="bold">HORROR</text>
    <text x="250" y="590" text-anchor="middle" fill="#fff" font-family="Arial, sans-serif" font-size="16" opacity="0.9">Spine-chilling</text>
</svg>
