<svg width="500" height="750" xmlns="http://www.w3.org/2000/svg">
    <defs>
        <linearGradient id="romanceGradient" x1="0%" y1="0%" x2="100%" y2="100%">
            <stop offset="0%" style="stop-color:#ff9ff3;stop-opacity:1" />
            <stop offset="100%" style="stop-color:#f368e0;stop-opacity:1" />
        </linearGradient>
    </defs>
    <rect width="500" height="750" fill="url(#romanceGradient)"/>
    
    <!-- Heart cloud -->
    <path d="M250 250 C230 230, 190 230, 190 270 C190 300, 250 350, 250 350 C250 350, 310 300, 310 270 C310 230, 270 230, 250 250 Z" 
          fill="#fff" opacity="0.9"/>
    
    <!-- Coffee cups -->
    <ellipse cx="200" cy="400" rx="25" ry="35" fill="#8b4513"/>
    <ellipse cx="300" cy="400" rx="25" ry="35" fill="#8b4513"/>
    <ellipse cx="200" cy="385" rx="20" ry="8" fill="#d2691e"/>
    <ellipse cx="300" cy="385" rx="20" ry="8" fill="#d2691e"/>
    
    <!-- Steam -->
    <path d="M190 360 Q185 340 190 320" stroke="#fff" stroke-width="3" fill="none" opacity="0.7"/>
    <path d="M200 360 Q205 340 200 320" stroke="#fff" stroke-width="3" fill="none" opacity="0.7"/>
    <path d="M210 360 Q215 340 210 320" stroke="#fff" stroke-width="3" fill="none" opacity="0.7"/>
    <path d="M290 360 Q285 340 290 320" stroke="#fff" stroke-width="3" fill="none" opacity="0.7"/>
    <path d="M300 360 Q305 340 300 320" stroke="#fff" stroke-width="3" fill="none" opacity="0.7"/>
    <path d="M310 360 Q315 340 310 320" stroke="#fff" stroke-width="3" fill="none" opacity="0.7"/>
    
    <text x="250" y="550" text-anchor="middle" fill="#fff" font-family="Arial, sans-serif" font-size="32" font-weight="bold">ROMANCE</text>
    <text x="250" y="590" text-anchor="middle" fill="#fff" font-family="Arial, sans-serif" font-size="16" opacity="0.9">Love stories</text>
</svg>
