<svg width="500" height="750" xmlns="http://www.w3.org/2000/svg">
    <defs>
        <linearGradient id="scifiGradient" x1="0%" y1="0%" x2="100%" y2="100%">
            <stop offset="0%" style="stop-color:#4834d4;stop-opacity:1" />
            <stop offset="100%" style="stop-color:#686de0;stop-opacity:1" />
        </linearGradient>
    </defs>
    <rect width="500" height="750" fill="url(#scifiGradient)"/>
    
    <!-- UFO -->
    <ellipse cx="250" cy="300" rx="80" ry="25" fill="#ddd"/>
    <ellipse cx="250" cy="290" rx="50" ry="30" fill="#f1f2f6"/>
    <circle cx="250" cy="285" r="15" fill="#70a1ff"/>
    
    <!-- UFO lights -->
    <circle cx="200" cy="310" r="5" fill="#ffa502"/>
    <circle cx="220" cy="315" r="4" fill="#ff6348"/>
    <circle cx="250" cy="318" r="5" fill="#ffa502"/>
    <circle cx="280" cy="315" r="4" fill="#ff6348"/>
    <circle cx="300" cy="310" r="5" fill="#ffa502"/>
    
    <!-- Beam -->
    <path d="M220 325 L200 450 L300 450 L280 325 Z" fill="#70a1ff" opacity="0.3"/>
    
    <!-- Stars -->
    <circle cx="100" cy="150" r="2" fill="#fff"/>
    <circle cx="150" cy="100" r="1.5" fill="#fff"/>
    <circle cx="350" cy="120" r="2" fill="#fff"/>
    <circle cx="400" cy="180" r="1.5" fill="#fff"/>
    <circle cx="80" cy="500" r="2" fill="#fff"/>
    <circle cx="420" cy="520" r="1.5" fill="#fff"/>
    
    <text x="250" y="550" text-anchor="middle" fill="#fff" font-family="Arial, sans-serif" font-size="32" font-weight="bold">SCI-FI</text>
    <text x="250" y="590" text-anchor="middle" fill="#fff" font-family="Arial, sans-serif" font-size="16" opacity="0.9">Future worlds</text>
</svg>
